<svg width="50" height="50" viewBox="0 0 50 50" fill="none" xmlns="http://www.w3.org/2000/svg">
<rect width="50" height="50" rx="25" fill="#FFF0EB"/>
<path d="M39.4684 26.3158L28.6703 37.4553C28.3322 37.8041 27.8736 38 27.3955 38C26.9174 38 26.4588 37.8041 26.1207 37.4553C25.7826 37.1065 25.5927 36.6335 25.5927 36.1402C25.5927 35.647 25.7826 35.1739 26.1207 34.8251L33.8459 26.8589H11.7997C11.3224 26.8589 10.8646 26.6633 10.5271 26.3151C10.1896 25.9669 10 25.4947 10 25.0023C10 24.5099 10.1896 24.0377 10.5271 23.6895C10.8646 23.3413 11.3224 23.1457 11.7997 23.1457H33.8459L26.1237 15.1749C25.7856 14.8261 25.5957 14.353 25.5957 13.8598C25.5957 13.3665 25.7856 12.8935 26.1237 12.5447C26.4618 12.1959 26.9204 12 27.3985 12C27.8766 12 28.3352 12.1959 28.6733 12.5447L39.4714 23.6842C39.6392 23.8569 39.7723 24.0621 39.863 24.288C39.9537 24.5139 40.0003 24.7561 40 25.0006C39.9997 25.2452 39.9526 25.4872 39.8614 25.713C39.7702 25.9387 39.6366 26.1435 39.4684 26.3158Z" fill="url(#paint0_linear_649_8657)"/>
<defs>
<linearGradient id="paint0_linear_649_8657" x1="2.93651" y1="20.0364" x2="71.2765" y2="19.7965" gradientUnits="userSpaceOnUse">
<stop offset="0.034214" stop-color="#FD6A3C"/>
<stop offset="0.74228" stop-color="#C0366A"/>
<stop offset="0.883703" stop-color="white"/>
</linearGradient>
</defs>
</svg>
