<svg width="50" height="50" viewBox="0 0 50 50" fill="none" xmlns="http://www.w3.org/2000/svg">
<rect width="50" height="50" rx="25" fill="#FFF0EB"/>
<path d="M10.5316 23.7243L21.3297 12.9262C21.6678 12.5881 22.1264 12.3982 22.6045 12.3982C23.0826 12.3982 23.5412 12.5881 23.8793 12.9262C24.2174 13.2643 24.4073 13.7228 24.4073 14.201C24.4073 14.6791 24.2174 15.1377 23.8793 15.4758L16.1541 23.1979L38.2003 23.1979C38.6776 23.1979 39.1354 23.3875 39.4729 23.725C39.8104 24.0626 40 24.5203 40 24.9976C40 25.4749 39.8104 25.9327 39.4729 26.2702C39.1354 26.6077 38.6776 26.7973 38.2003 26.7973L16.1541 26.7973L23.8763 34.524C24.2144 34.8621 24.4043 35.3206 24.4043 35.7988C24.4043 36.2769 24.2144 36.7354 23.8763 37.0735C23.5382 37.4116 23.0796 37.6016 22.6015 37.6016C22.1234 37.6016 21.6648 37.4116 21.3267 37.0735L10.5286 26.2754C10.3608 26.108 10.2277 25.909 10.137 25.69C10.0463 25.471 9.99973 25.2363 10 24.9992C10.0003 24.7622 10.0474 24.5275 10.1386 24.3088C10.2298 24.09 10.3634 23.8914 10.5316 23.7243Z" fill="url(#paint0_linear_649_8659)"/>
<defs>
<linearGradient id="paint0_linear_649_8659" x1="47.0635" y1="29.8114" x2="-21.2764" y2="30.0588" gradientUnits="userSpaceOnUse">
<stop offset="0.034214" stop-color="#FD6A3C"/>
<stop offset="0.74228" stop-color="#C0366A"/>
<stop offset="0.883703" stop-color="white"/>
</linearGradient>
</defs>
</svg>
